
        <svg xmlns="http://www.w3.org/2000/svg" xmlns:xlink="http://www.w3.org/1999/xlink" version="1.1" width="3187.5" 
        height="1136.7074765739374" viewBox="0 0 3187.5 1136.7074765739374">
			
			<g transform="scale(9.375) translate(10, 10)">
				<defs id="SvgjsDefs1316"></defs><g id="SvgjsG1317" featureKey="QMusi1-0" transform="matrix(1.5532290721366546,0,0,1.5532290721366546,-1.2565622504792813,-0.6321636850286265)" fill="#364f6b"><g xmlns="http://www.w3.org/2000/svg"><path d="M65.191,46.533c0-7.75-4.657-14.422-11.313-17.398v-7.078c0-0.353-0.246-0.658-0.591-0.733l-5.373-1.167   c-0.332-1.027-0.744-2.021-1.229-2.963l2.974-4.631c0.19-0.297,0.148-0.686-0.101-0.936l-6.9-6.9   c-0.249-0.249-0.638-0.291-0.936-0.101L37.091,7.6c-0.957-0.489-1.95-0.901-2.962-1.229l-1.167-5.373   c-0.075-0.345-0.38-0.591-0.733-0.591h-9.77c-0.353,0-0.658,0.246-0.733,0.591l-1.168,5.377c-1,0.331-1.989,0.742-2.949,1.227   l-4.645-2.976c-0.299-0.191-0.687-0.147-0.935,0.102l-6.89,6.9c-0.249,0.249-0.291,0.638-0.101,0.935l2.974,4.642   c-0.487,0.946-0.899,1.937-1.229,2.954L1.4,21.324c-0.345,0.075-0.591,0.38-0.591,0.733v9.76c0,0.353,0.246,0.657,0.59,0.733   l5.387,1.177c0.335,1.015,0.747,2.004,1.227,2.951l-2.975,4.644c-0.19,0.297-0.148,0.686,0.101,0.935l6.89,6.89   c0.249,0.25,0.638,0.291,0.935,0.101l4.645-2.977c0.959,0.485,1.948,0.897,2.949,1.228l1.168,5.376   c0.075,0.345,0.38,0.591,0.733,0.591h5.935c2.781,7.088,9.674,12.127,17.736,12.127C56.64,65.594,65.191,57.043,65.191,46.533z    M27.855,51.966h-4.792l-1.132-5.209c-0.058-0.265-0.253-0.478-0.513-0.558c-1.19-0.366-2.368-0.855-3.499-1.456   c-0.239-0.126-0.527-0.115-0.756,0.031l-4.501,2.885l-6.037-6.037l2.884-4.502c0.147-0.229,0.158-0.519,0.03-0.759   c-0.593-1.108-1.082-2.284-1.455-3.496c-0.08-0.259-0.292-0.455-0.557-0.513l-5.22-1.141v-8.551l5.219-1.132   c0.267-0.058,0.481-0.256,0.559-0.517c0.363-1.211,0.851-2.384,1.451-3.487c0.131-0.24,0.121-0.533-0.027-0.763l-2.884-4.503   l6.037-6.045l4.501,2.884c0.229,0.148,0.518,0.159,0.756,0.031c1.131-0.6,2.309-1.09,3.499-1.455   c0.259-0.08,0.455-0.293,0.513-0.558l1.132-5.21h8.561l1.131,5.21c0.058,0.267,0.256,0.481,0.518,0.559   c1.202,0.359,2.379,0.848,3.499,1.451c0.24,0.129,0.532,0.118,0.761-0.029l4.492-2.884l6.045,6.045l-2.884,4.492   c-0.147,0.231-0.158,0.523-0.027,0.764c0.596,1.096,1.083,2.272,1.45,3.497c0.079,0.262,0.292,0.46,0.56,0.518l5.209,1.132v5.865   c-1.733-0.607-4.154-1.054-6.249-1.054c-0.999,0-1.973,0.101-2.931,0.249c-0.098-8.958-7.331-15.778-15.851-15.778   c-8.756,0-15.88,7.123-15.88,15.88c0,8.381,6.642,15.734,15.84,15.848c-0.142,0.937-0.239,1.889-0.239,2.865   C27.069,48.173,27.334,50.212,27.855,51.966z M27.591,42.177c-8.527,0.028-14.624-6.709-14.624-14.353   c0-7.929,6.451-14.38,14.38-14.38c7.746,0,14.391,6.23,14.355,14.568c-6.542,1.565-11.792,6.493-13.776,12.863   C27.794,41.3,27.694,41.739,27.591,42.177z M28.57,46.533c0-1.814,0.277-3.565,0.79-5.213c2.227-7.144,8.902-12.344,16.769-12.344   c9.559,0,17.563,7.789,17.563,17.557c0,9.683-7.878,17.561-17.561,17.561C36.407,64.094,28.57,56.15,28.57,46.533z"></path><path d="M51.992,59.727l0.083-0.131c0.457-0.727,0.547-1.354,0.266-1.861c-0.287-0.52-0.889-0.783-1.788-0.783   c-0.683,0-1.361,0.149-1.337,0.149c0,0,0,0,0,0c-0.505,0.047-0.876-0.015-0.95-0.154c-0.233-0.445,0.388-1.889,1.098-2.917   c3.266-4.898,1.659-8.441,1.584-8.599c-1.041-2.127-2.917-3.251-5.425-3.251c-3.152,0-6.285,1.749-6.476,1.861   c-0.622,0.433-0.814,0.935-0.866,1.28c-0.082,0.549,0.131,0.987,0.264,1.197c0.159,0.371,0.57,0.75,1.581,0.75   c0.886,0,2.033-0.27,2.388-0.359c0.094,0.007,0.129,0.026,0.13,0.026c0.32,0.405-0.531,2.806-2.125,5.326   c-2.527,4.424-0.053,7.066,0.359,7.46c1.285,1.417,2.927,2.136,4.881,2.136c3.195,0,6.083-1.957,6.205-2.04L51.992,59.727z    M50.884,58.663c-0.563,0.355-2.841,1.692-5.225,1.692c-1.52,0-2.793-0.559-3.854-1.729c-0.09-0.078-2.175-1.961-0.1-5.594   c0.742-1.171,3.089-5.124,2.157-6.817c-0.167-0.303-0.585-0.81-1.542-0.81l-0.186,0.025c-0.349,0.093-1.407,0.336-2.107,0.336   c-0.138,0-0.23-0.009-0.288-0.019l-0.032-0.04c0-0.001-0.052-0.096-0.042-0.166c0.011-0.073,0.101-0.173,0.18-0.233   c0.029-0.016,2.917-1.629,5.679-1.629c1.95,0,3.284,0.788,4.073,2.4c0.013,0.029,1.32,2.917-1.472,7.106   c-0.335,0.483-1.966,2.969-1.187,4.457c0.233,0.445,0.761,0.976,1.954,0.976c0.147,0,0.305-0.008,0.569-0.039   c0.005-0.002,0.568-0.127,1.093-0.127c0.201,0,0.332,0.018,0.414,0.037C50.95,58.533,50.923,58.591,50.884,58.663z"></path><path d="M48.817,41.772c2.912,0,5.281-2.369,5.281-5.281c0-2.912-2.369-5.281-5.281-5.281c-2.912,0-5.281,2.369-5.281,5.281   C43.536,39.403,45.905,41.772,48.817,41.772z M48.817,32.71c2.085,0,3.781,1.696,3.781,3.781c0,2.085-1.696,3.781-3.781,3.781   c-2.085,0-3.781-1.696-3.781-3.781C45.036,34.407,46.732,32.71,48.817,32.71z"></path></g></g><g id="SvgjsG1318" featureKey="UyNsn2-0" transform="matrix(1.3000522909216137,0,0,1.3000522909216137,119.03796090487397,30.797737634069875)" fill="#364f6b"><path d="M10.88 19.66 c-0.56 0.22666 -1.0966 0.37664 -1.61 0.44998 s-1.0833 0.11 -1.71 0.11 c-1.1333 0 -2.1266 -0.18 -2.98 -0.54 s-1.5633 -0.86334 -2.13 -1.51 s-0.99332 -1.4167 -1.28 -2.31 s-0.43 -1.8733 -0.43 -2.94 s0.14666 -2.0534 0.44 -2.96 s0.72334 -1.6867 1.29 -2.34 s1.27 -1.1633 2.11 -1.53 s1.8 -0.55 2.88 -0.55 c0.62666 0 1.1933 0.06 1.7 0.18 s1 0.28666 1.48 0.5 l-0.82 2.66 c-0.26666 -0.12 -0.56332 -0.22666 -0.88998 -0.32 s-0.71666 -0.14 -1.17 -0.14 c-2.3734 0 -3.56 1.5 -3.56 4.5 c0 1.5067 0.30666 2.62 0.92 3.34 s1.56 1.08 2.84 1.08 c0.42666 0 0.80332 -0.03 1.13 -0.09 s0.65 -0.15 0.97 -0.27 z M17.5 15.42 c-0.13334 -0.02666 -0.2733 -0.04338 -0.41996 -0.050038 s-0.27332 -0.01 -0.37998 -0.01 c-0.56 0 -1.0133 0.08666 -1.36 0.26 s-0.52 0.47334 -0.52 0.9 c0 0.26666 0.06334 0.47666 0.19 0.63 s0.28332 0.26668 0.46998 0.34002 s0.38332 0.11668 0.58998 0.13002 s0.38332 0.02 0.52998 0.02 c0.26666 0 0.56666 -0.03334 0.9 -0.1 l0 -2.12 z M16.46 13.219999999999999 c0.10666 0 0.24996 0.0033594 0.42996 0.01002 s0.38334 0.01666 0.61 0.03 c-0.01334 -0.52 -0.19668 -0.85666 -0.55002 -1.01 s-0.81 -0.23 -1.37 -0.23 c-0.30666 0 -0.66 0.03666 -1.06 0.11 s-0.83334 0.18334 -1.3 0.33 l-0.32 -1.1 c-0.04 -0.14666 -0.09666 -0.36 -0.17 -0.64 s-0.12334 -0.5 -0.15 -0.66 c0.66666 -0.22666 1.2967 -0.39 1.89 -0.49 s1.13 -0.15 1.61 -0.15 c1.4133 0 2.5066 0.33666 3.28 1.01 s1.16 1.75 1.16 3.23 l0 5.86 c-0.52 0.14666 -1.12 0.29 -1.8 0.43 s-1.4133 0.21 -2.2 0.21 c-0.69334 0 -1.3233 -0.06 -1.89 -0.18 s-1.0533 -0.32 -1.46 -0.6 s-0.72 -0.64666 -0.94 -1.1 s-0.33 -1.0067 -0.33 -1.66 s0.13666 -1.2 0.41 -1.64 s0.62668 -0.79 1.06 -1.05 s0.92 -0.44334 1.46 -0.55 s1.0833 -0.16 1.63 -0.16 z M22.740000000000002 12.04 l-1.66 0 l1.32 -2.48 l2.9 0 l0.24 1.12 c0.30666 -0.34666 0.68332 -0.63 1.13 -0.85 s0.96332 -0.33 1.55 -0.33 c1.3733 0 2.3534 0.5 2.94 1.5 c0.33334 -0.46666 0.72668 -0.83332 1.18 -1.1 s1.02 -0.4 1.7 -0.4 c1.2 0 2.0766 0.31666 2.63 0.95 s0.83 1.6433 0.83 3.03 l0 6.52 l-3.04 0 l0 -5.98 c0 -0.64 -0.10334 -1.0933 -0.31 -1.36 s-0.56332 -0.4 -1.07 -0.4 c-0.21334 0 -0.41 0.02334 -0.59 0.07 s-0.33334 0.13332 -0.46 0.25998 s-0.22666 0.3 -0.3 0.52 s-0.11 0.51 -0.11 0.87 l0 6.02 l-3.04 0 l0 -6.02 c0 -0.66666 -0.11666 -1.12 -0.35 -1.36 s-0.55668 -0.36 -0.97002 -0.36 c-0.2 0 -0.38666 0.02 -0.56 0.06 s-0.33 0.12 -0.47 0.24 s-0.25 0.29334 -0.33 0.52 s-0.12 0.52666 -0.12 0.9 l0 6.02 l-3.04 0 l0 -7.96 z M40.88 12.02 l-1.9999 0.000019531 l1.32 -2.46 l3.16 0 l0.26 1.16 c0.30666 -0.36 0.68332 -0.65666 1.13 -0.89 s0.97 -0.35 1.57 -0.35 c0.58666 0 1.1333 0.10334 1.64 0.31 s0.94666 0.52332 1.32 0.94998 s0.66668 0.96332 0.88002 1.61 s0.32 1.4167 0.32 2.31 c0 1.7333 -0.48666 3.0766 -1.46 4.03 s-2.3466 1.43 -4.12 1.43 c-0.33334 0 -0.66668 -0.02 -1 -0.06 l0 4.62 l-3.02 0 l0 -12.66 z M43.9 17.4 c0.33334 0.06666 0.67332 0.10002 1.02 0.10002 c0.74666 0 1.34 -0.22 1.78 -0.66 s0.66 -1.14 0.66 -2.1 c0 -0.73334 -0.15334 -1.34 -0.46 -1.82 s-0.77332 -0.72 -1.4 -0.72 c-0.57334 0 -0.98334 0.20334 -1.23 0.61 s-0.37 0.90332 -0.37 1.49 l0 3.1 z M51.98 9.56 l3.04 -0.000039062 l0 5.44 c0 0.46666 0.04 0.85666 0.12 1.17 s0.2 0.56 0.36 0.74 s0.35666 0.30666 0.59 0.38 s0.51 0.11 0.83 0.11 c0.38666 0 0.73332 -0.02 1.04 -0.06 l-0.04 -0.36 l0 -7.42 l3.04 0 l0 9.88 c-0.49334 0.17334 -1.0833 0.32668 -1.77 0.46002 s-1.39 0.2 -2.11 0.2 c-0.68 0 -1.33 -0.05334 -1.95 -0.16 s-1.1633 -0.33332 -1.63 -0.67998 s-0.83666 -0.85 -1.11 -1.51 s-0.41 -1.55 -0.41 -2.67 l0 -5.52 z M65.24 15.68 c-0.72 -0.21334 -1.3133 -0.53998 -1.78 -0.97998 s-0.7 -1.0733 -0.7 -1.9 c0 -1.04 0.36666 -1.8533 1.1 -2.44 s1.7467 -0.88 3.04 -0.88 c0.49334 0 1.0033 0.05334 1.53 0.16 s1.1833 0.3 1.97 0.58 l-1.2 2.16 c-0.41334 -0.14666 -0.77 -0.25666 -1.07 -0.33 s-0.64334 -0.11 -1.03 -0.11 c-0.36 0 -0.64334 0.05 -0.85 0.15 s-0.31 0.26334 -0.31 0.49 c0 0.18666 0.07666 0.32 0.23 0.4 s0.35668 0.16666 0.61002 0.26 l1.08 0.32 c0.36 0.10666 0.69666 0.23332 1.01 0.37998 s0.58 0.33 0.8 0.55 s0.39334 0.49666 0.52 0.83 s0.19 0.74 0.19 1.22 c0 0.50666 -0.10334 0.97666 -0.31 1.41 s-0.50666 0.81 -0.9 1.13 s-0.87334 0.57 -1.44 0.75 s-1.21 0.27 -1.93 0.27 c-0.28 0 -0.55 -0.01 -0.81 -0.03 s-0.51666 -0.05334 -0.77 -0.1 s-0.52 -0.11 -0.8 -0.19 s-0.58 -0.17334 -0.9 -0.28 c0.02666 -0.09334 0.05332 -0.2 0.07998 -0.32 s0.06666 -0.27 0.12 -0.45 s0.11334 -0.39666 0.18 -0.65 s0.15332 -0.56668 0.25998 -0.94002 c0.56 0.14666 1.03 0.25332 1.41 0.31998 s0.76334 0.1 1.15 0.1 c0.16 0 0.33 -0.01334 0.51 -0.04 s0.35 -0.07332 0.51 -0.13998 s0.29334 -0.15332 0.4 -0.25998 s0.16 -0.24666 0.16 -0.42 c0 -0.2 -0.07 -0.34 -0.21 -0.42 s-0.35 -0.16666 -0.63 -0.26 z M81.97999999999999 19.66 c-0.56 0.22666 -1.0966 0.37664 -1.61 0.44998 s-1.0833 0.11 -1.71 0.11 c-1.1333 0 -2.1266 -0.18 -2.98 -0.54 s-1.5633 -0.86334 -2.13 -1.51 s-0.99332 -1.4167 -1.28 -2.31 s-0.43 -1.8733 -0.43 -2.94 s0.14666 -2.0534 0.44 -2.96 s0.72334 -1.6867 1.29 -2.34 s1.27 -1.1633 2.11 -1.53 s1.8 -0.55 2.88 -0.55 c0.62666 0 1.1933 0.06 1.7 0.18 s1 0.28666 1.48 0.5 l-0.82 2.66 c-0.26666 -0.12 -0.56332 -0.22666 -0.88998 -0.32 s-0.71666 -0.14 -1.17 -0.14 c-2.3734 0 -3.56 1.5 -3.56 4.5 c0 1.5067 0.30666 2.62 0.92 3.34 s1.56 1.08 2.84 1.08 c0.42666 0 0.80332 -0.03 1.13 -0.09 s0.65 -0.15 0.97 -0.27 z M87.08 9.44 c0.69334 0 1.34 0.09668 1.94 0.29002 s1.1167 0.50334 1.55 0.93 s0.77334 0.98 1.02 1.66 s0.37 1.5 0.37 2.46 s-0.12334 1.78 -0.37 2.46 s-0.58666 1.2333 -1.02 1.66 s-0.95 0.73666 -1.55 0.93 s-1.2467 0.29 -1.94 0.29 c-0.70666 0 -1.3567 -0.09666 -1.95 -0.29 s-1.1067 -0.50334 -1.54 -0.93 s-0.77334 -0.98 -1.02 -1.66 s-0.37 -1.5 -0.37 -2.46 c0 -0.94666 0.12334 -1.7567 0.37 -2.43 s0.58666 -1.2267 1.02 -1.66 s0.94668 -0.75 1.54 -0.95 s1.2433 -0.3 1.95 -0.3 z M87.08 17.5 c0.6 0 1.07 -0.2 1.41 -0.6 s0.51 -1.1067 0.51 -2.12 s-0.17 -1.7233 -0.51 -2.13 s-0.81 -0.61 -1.41 -0.61 c-0.58666 0 -1.0567 0.21 -1.41 0.63 s-0.53 1.1233 -0.53 2.11 c0 1.0133 0.17334 1.72 0.52 2.12 s0.82 0.6 1.42 0.6 z M102.28 5.98 l0.000019531 13.74 c-0.48 0.10666 -0.94666 0.18666 -1.4 0.24 s-0.86668 0.09334 -1.24 0.12 s-0.69334 0.04 -0.96 0.04 l-0.54 0 c-0.90666 0 -1.67 -0.14 -2.29 -0.42 s-1.12 -0.66 -1.5 -1.14 s-0.65666 -1.0367 -0.83 -1.67 s-0.26 -1.31 -0.26 -2.03 c0 -0.92 0.11666 -1.71 0.35 -2.37 s0.56 -1.2033 0.98 -1.63 s0.92 -0.74332 1.5 -0.94998 s1.2233 -0.31 1.93 -0.31 c0.12 0 0.25666 0.01 0.41 0.03 s0.3 0.04334 0.44 0.07 s0.27 0.05666 0.39 0.09 s0.21334 0.07 0.28 0.11 l0 -1.18 l0.06 -0.26 l-1.8 0 l1.34 -2.48 l3.14 0 z M98.46 17.44 c0.2 0 0.39334 -0.0066602 0.58 -0.02 s0.35332 -0.03334 0.49998 -0.06 l0 -5.12 c-0.09334 -0.01334 -0.2 -0.03334 -0.32 -0.06 c-0.10666 -0.02666 -0.23 -0.04666 -0.37 -0.06 s-0.29666 -0.02 -0.47 -0.02 c-0.62666 0 -1.1533 0.21334 -1.58 0.64 s-0.64 1.1333 -0.64 2.12 c0 0.49334 0.06 0.90668 0.18 1.24 s0.28334 0.6 0.49 0.8 s0.45 0.34 0.73 0.42 s0.58 0.12 0.9 0.12 z M108.74 9.44 c0.69334 0 1.3166 0.096622 1.87 0.28996 s1.0167 0.50668 1.39 0.94002 s0.66 0.99 0.86 1.67 s0.3 1.5 0.3 2.46 l0 0.31 l-0.04 0.63 l-5.6 0 l-0.42 -0.06 c0.01334 0.38666 0.05668 0.69666 0.13002 0.93 s0.18 0.41668 0.32 0.55002 s0.31 0.22668 0.51 0.28002 s0.42666 0.08668 0.68 0.10002 c0.41334 0.02666 0.77 -0.03334 1.07 -0.18 s0.58334 -0.44666 0.85 -0.9 c0.41334 0.13334 0.79334 0.26 1.14 0.38 c0.29334 0.10666 0.56 0.2 0.8 0.28 s0.36 0.11334 0.36 0.1 c-0.48 1 -1.0633 1.73 -1.75 2.19 s-1.51 0.69 -2.47 0.69 c-0.70666 0 -1.3467 -0.09334 -1.92 -0.28 s-1.06 -0.49 -1.46 -0.91 s-0.71 -0.96666 -0.93 -1.64 s-0.33 -1.4967 -0.33 -2.47 c0 -0.94666 0.11 -1.7567 0.33 -2.43 s0.53 -1.2267 0.93 -1.66 s0.88666 -0.75334 1.46 -0.96 s1.2133 -0.31 1.92 -0.31 z M109.84 13.440000000000001 l0.30004 0.04 c-0.02666 -0.46666 -0.15 -0.83 -0.37 -1.09 s-0.56334 -0.39 -1.03 -0.39 c-0.53334 0 -0.91668 0.13 -1.15 0.39 s-0.37668 0.62334 -0.43002 1.09 c0.06666 -0.01334 0.12666 -0.02334 0.18 -0.03 s0.11334 -0.01 0.18 -0.01 l2.32 0 z M115.16 20 l0 -3.26 l3.26 0 l0 3.26 l-3.26 0 z M120.86 5.699999999999999 l3.28 -0.000019531 l0 5.4 l4.26 0 l0 -5.4 l3.28 0 l0 14.3 l-3.28 0 l0 -6.1 c-0.08 0.01334 -0.15334 0.02668 -0.22 0.04002 l-0.24 0.04 l-3.36 0 l-0.44 -0.08 l0 6.1 l-3.28 0 l0 -14.3 z M133.96 9.56 l3.04 -0.000039062 l0 5.44 c0 0.46666 0.04 0.85666 0.12 1.17 s0.2 0.56 0.36 0.74 s0.35666 0.30666 0.59 0.38 s0.51 0.11 0.83 0.11 c0.38666 0 0.73332 -0.02 1.04 -0.06 l-0.04 -0.36 l0 -7.42 l3.04 0 l0 9.88 c-0.49334 0.17334 -1.0833 0.32668 -1.77 0.46002 s-1.39 0.2 -2.11 0.2 c-0.68 0 -1.33 -0.05334 -1.95 -0.16 s-1.1633 -0.33332 -1.63 -0.67998 s-0.83666 -0.85 -1.11 -1.51 s-0.41 -1.55 -0.41 -2.67 l0 -5.52 z M148.42 5.960000000000001 l-0.000019531 3.46 l-0.1 0.42 c0 -0.01334 0.13334 -0.05668 0.4 -0.13002 s0.63332 -0.11 1.1 -0.11 c0.69334 0 1.3333 0.10334 1.92 0.31 s1.09 0.52332 1.51 0.94998 s0.74666 0.97 0.98 1.63 s0.35 1.45 0.35 2.37 c0 0.72 -0.08334 1.3967 -0.25 2.03 s-0.44332 1.19 -0.82998 1.67 s-0.89332 0.86 -1.52 1.14 s-1.4 0.42 -2.32 0.42 l-0.53 0 l-0.94 -0.04 l-1.23 -0.12 l-1.4 -0.24 l0 -11.3 l-1.66 0 l1.28 -2.44 z M149.38 17.44 c0.32 0 0.62338 -0.039942 0.91004 -0.11994 s0.53332 -0.22 0.73998 -0.42 s0.37332 -0.46666 0.49998 -0.8 s0.19 -0.74668 0.19 -1.24 s-0.06 -0.91668 -0.18 -1.27 s-0.28 -0.64 -0.48 -0.86 s-0.43666 -0.38 -0.71 -0.48 s-0.56334 -0.15 -0.87 -0.15 c-0.16 0 -0.34666 0.01334 -0.56 0.04 s-0.38 0.05332 -0.5 0.07998 l0 5.14 c0.14666 0.02666 0.29666 0.04666 0.45 0.06 s0.32334 0.02 0.51 0.02 z"></path></g>
			</g>
		</svg>
	